<svg width="555" height="115" viewBox="0 0 555 115" fill="none" xmlns="http://www.w3.org/2000/svg">
<g filter="url(#filter0_b_261_8734)">
<rect width="555" height="115" rx="5" fill="white" fill-opacity="0.04"/>
<path d="M109.185 75V37.2H114.045V53.4H134.025V37.2H138.885V75H134.025V57.72H114.045V75H109.185ZM145.36 70.14V57.72L166.96 57.18V49.08H146.44V44.76H166.96L171.82 49.62V75H150.22L145.36 70.14ZM150.22 62.04V70.68H166.96V60.96L150.22 62.04ZM205.549 44.76V75H200.689V67.44H183.409L178.549 62.58V44.76H183.409V63.12H200.689V44.76H205.549ZM212.042 70.14V57.72L233.642 57.18V49.08H213.122V44.76H233.642L238.502 49.62V75H216.902L212.042 70.14ZM216.902 62.04V70.68H233.642V60.96L216.902 62.04ZM259.811 75H254.951V49.08H243.341V44.76H271.421V49.08H259.811V75ZM276.258 75V44.76H281.118V52.32H298.668L303.528 57.18V70.14L298.668 75H276.258ZM281.118 70.68H298.668V56.64H281.118V70.68ZM352.944 75H348.084V49.782L330.696 75H324.324V44.76H329.184V69.978L346.572 44.76H352.944V75ZM359.985 75V44.76H381.045V49.08H364.845V75H359.985ZM385.89 82.56V44.76H408.3L413.16 49.62V70.14L408.3 75H390.75V82.56H385.89ZM408.3 49.08H390.75V70.68H408.3V49.08ZM418.891 82.56V78.24H432.985L435.307 70.68H426.073L417.271 44.76H422.185L429.529 66.36H436.603L443.569 44.76H448.483L436.387 82.56H418.891Z" fill="#F2F3F4"/>
</g>
<defs>
<filter id="filter0_b_261_8734" x="-9.7" y="-9.7" width="574.4" height="134.4" filterUnits="userSpaceOnUse" color-interpolation-filters="sRGB">
<feFlood flood-opacity="0" result="BackgroundImageFix"/>
<feGaussianBlur in="BackgroundImageFix" stdDeviation="4.85"/>
<feComposite in2="SourceAlpha" operator="in" result="effect1_backgroundBlur_261_8734"/>
<feBlend mode="normal" in="SourceGraphic" in2="effect1_backgroundBlur_261_8734" result="shape"/>
</filter>
</defs>
</svg>
