<svg width="567" height="127" viewBox="0 0 567 127" fill="none" xmlns="http://www.w3.org/2000/svg">
<g filter="url(#filter0_b_261_8738)">
<rect x="6" y="6" width="555" height="115" rx="5" fill="white" fill-opacity="0.04"/>
<rect x="3" y="3" width="561" height="121" rx="8" stroke="#F2F3F4" stroke-width="6"/>
<path d="M115.185 81V43.2H120.045V59.4H140.025V43.2H144.885V81H140.025V63.72H120.045V81H115.185ZM151.36 76.14V63.72L172.96 63.18V55.08H152.44V50.76H172.96L177.82 55.62V81H156.22L151.36 76.14ZM156.22 68.04V76.68H172.96V66.96L156.22 68.04ZM211.549 50.76V81H206.689V73.44H189.409L184.549 68.58V50.76H189.409V69.12H206.689V50.76H211.549ZM218.042 76.14V63.72L239.642 63.18V55.08H219.122V50.76H239.642L244.502 55.62V81H222.902L218.042 76.14ZM222.902 68.04V76.68H239.642V66.96L222.902 68.04ZM265.811 81H260.951V55.08H249.341V50.76H277.421V55.08H265.811V81ZM282.258 81V50.76H287.118V58.32H304.668L309.528 63.18V76.14L304.668 81H282.258ZM287.118 76.68H304.668V62.64H287.118V76.68ZM358.944 81H354.084V55.782L336.696 81H330.324V50.76H335.184V75.978L352.572 50.76H358.944V81ZM365.985 81V50.76H387.045V55.08H370.845V81H365.985ZM391.89 88.56V50.76H414.3L419.16 55.62V76.14L414.3 81H396.75V88.56H391.89ZM414.3 55.08H396.75V76.68H414.3V55.08ZM424.891 88.56V84.24H438.985L441.307 76.68H432.073L423.271 50.76H428.185L435.529 72.36H442.603L449.569 50.76H454.483L442.387 88.56H424.891Z" fill="#F2F3F4"/>
</g>
<defs>
<filter id="filter0_b_261_8738" x="-22.3" y="-22.3" width="611.6" height="171.6" filterUnits="userSpaceOnUse" color-interpolation-filters="sRGB">
<feFlood flood-opacity="0" result="BackgroundImageFix"/>
<feGaussianBlur in="BackgroundImageFix" stdDeviation="11.15"/>
<feComposite in2="SourceAlpha" operator="in" result="effect1_backgroundBlur_261_8738"/>
<feBlend mode="normal" in="SourceGraphic" in2="effect1_backgroundBlur_261_8738" result="shape"/>
</filter>
</defs>
</svg>
